<?xml version="1.0" standalone="no"?>
<!DOCTYPE svg PUBLIC "-//W3C//DTD SVG 20010904//EN"
 "http://www.w3.org/TR/2001/REC-SVG-20010904/DTD/svg10.dtd">
<svg version="1.0" xmlns="http://www.w3.org/2000/svg"
 width="250.000000pt" height="226.000000pt" viewBox="0 0 250.000000 226.000000"
 preserveAspectRatio="xMidYMid meet">

<g transform="translate(0.000000,226.000000) scale(0.100000,-0.100000)"
fill="#000000" stroke="none">
<path d="M2 2251 c2 -6 211 -283 466 -616 462 -605 463 -606 445 -629 -10 -12
-207 -240 -438 -505 -231 -266 -421 -487 -423 -492 -2 -5 76 -9 185 -9 l188 1
344 395 c273 312 347 392 357 382 6 -7 143 -185 304 -395 l291 -383 386 0
c307 0 383 3 376 13 -6 6 -227 299 -492 650 l-483 639 24 26 c14 15 139 158
278 317 140 160 319 363 398 453 l143 162 -193 0 -193 0 -309 -350 c-170 -192
-314 -354 -320 -359 -8 -7 -91 96 -281 349 l-270 359 -393 1 c-243 0 -392 -4
-390 -9z m1323 -1072 c358 -472 665 -880 684 -904 l33 -46 -108 3 -108 3 -678
885 c-373 487 -683 893 -689 903 -9 16 -2 17 103 17 l113 -1 650 -860z"/>
</g>
</svg>
